<svg xmlns="http://www.w3.org/2000/svg" xmlns:xlink="http://www.w3.org/1999/xlink" width="500" zoomAndPan="magnify" viewBox="0 0 375 374.999991" height="500" preserveAspectRatio="xMidYMid meet" version="1.0"><defs><g/><clipPath id="bfa502e835"><path d="M 133.167969 176 L 241.917969 176 L 241.917969 195.71875 L 133.167969 195.71875 Z M 133.167969 176 " clip-rule="nonzero"/></clipPath><clipPath id="b526271710"><path d="M 112.5 112.5 L 262.5 112.5 L 262.5 262.5 L 112.5 262.5 Z M 112.5 112.5 " clip-rule="nonzero"/></clipPath><clipPath id="486df8dba3"><path d="M 38.332031 38.332031 L 336.832031 38.332031 L 336.832031 336.832031 L 38.332031 336.832031 Z M 38.332031 38.332031 " clip-rule="nonzero"/></clipPath></defs><g clip-path="url(#bfa502e835)"><path fill="#000000" d="M 241.246094 190.699219 C 241.917969 191.53125 242.085938 192.699219 241.582031 193.699219 C 241.082031 194.695312 240.078125 195.363281 238.90625 195.363281 L 136.011719 195.363281 C 134.839844 195.363281 133.835938 194.695312 133.335938 193.699219 C 133 192.699219 133.167969 191.53125 133.835938 190.699219 L 143.875 177.539062 C 144.710938 176.542969 145.882812 176.042969 147.054688 176.042969 L 156.421875 176.042969 L 156.421875 176.875 L 158.097656 176.875 L 158.097656 176.042969 L 216.988281 176.042969 L 216.988281 176.875 L 218.660156 176.875 L 218.660156 176.042969 L 228.03125 176.042969 C 229.203125 176.042969 230.371094 176.542969 231.210938 177.539062 Z M 240.078125 193.03125 C 240.242188 192.53125 240.242188 192.199219 239.910156 191.699219 L 229.871094 178.539062 C 229.367188 178.039062 228.699219 177.707031 228.03125 177.707031 L 147.054688 177.707031 C 146.382812 177.707031 145.714844 178.039062 145.214844 178.539062 L 135.175781 191.699219 C 134.839844 192.03125 134.839844 192.53125 135.007812 193.03125 C 135.175781 193.53125 135.675781 193.699219 136.179688 193.699219 L 239.074219 193.699219 C 239.40625 193.699219 239.910156 193.363281 240.078125 193.03125 Z M 240.078125 193.03125 " fill-opacity="1" fill-rule="nonzero"/></g><path fill="#38b6ff" d="M 240.078125 191.699219 C 240.410156 192.03125 240.410156 192.53125 240.242188 193.03125 C 240.078125 193.53125 239.574219 193.699219 239.074219 193.699219 L 197.246094 193.699219 L 197.246094 190.199219 L 197.746094 190.199219 L 198.082031 189.867188 C 198.25 189.535156 198.417969 189.199219 198.417969 188.699219 L 197.414062 182.039062 C 197.414062 181.371094 196.910156 181.039062 196.410156 181.039062 L 196.410156 177.707031 L 228.199219 177.707031 C 228.867188 177.707031 229.535156 178.039062 230.039062 178.539062 Z M 229.535156 183.371094 C 229.535156 182.871094 229.203125 182.539062 228.699219 182.539062 L 205.609375 182.539062 C 205.109375 182.539062 204.773438 182.871094 204.773438 183.371094 C 204.773438 183.871094 205.109375 184.203125 205.609375 184.203125 L 228.53125 184.203125 C 229.203125 184.203125 229.535156 183.871094 229.535156 183.371094 Z M 229.535156 187.699219 C 229.535156 187.203125 229.203125 186.867188 228.699219 186.867188 L 205.609375 186.867188 C 205.109375 186.867188 204.773438 187.203125 204.773438 187.699219 C 204.773438 188.199219 205.109375 188.535156 205.609375 188.535156 L 228.53125 188.535156 C 229.203125 188.535156 229.535156 188.035156 229.535156 187.699219 Z M 229.535156 187.699219 " fill-opacity="1" fill-rule="nonzero"/><path fill="#000000" d="M 230.371094 124.90625 L 230.371094 168.378906 C 230.371094 170.546875 228.699219 172.210938 226.523438 172.210938 L 218.660156 172.210938 L 218.660156 171.378906 L 216.988281 171.378906 L 216.988281 172.210938 L 158.097656 172.210938 L 158.097656 171.378906 L 156.421875 171.378906 L 156.421875 172.210938 L 148.558594 172.210938 C 146.382812 172.210938 144.710938 170.546875 144.710938 168.378906 L 144.710938 124.90625 C 144.710938 122.742188 146.382812 121.074219 148.558594 121.074219 L 226.691406 121.074219 C 228.699219 121.074219 230.371094 122.742188 230.371094 124.90625 Z M 228.699219 168.378906 L 228.699219 124.90625 C 228.699219 123.738281 227.695312 122.742188 226.523438 122.742188 L 148.558594 122.742188 C 147.386719 122.742188 146.382812 123.738281 146.382812 124.90625 L 146.382812 168.378906 C 146.382812 169.546875 147.386719 170.546875 148.558594 170.546875 L 226.691406 170.546875 C 227.863281 170.546875 228.699219 169.546875 228.699219 168.378906 Z M 228.699219 168.378906 " fill-opacity="1" fill-rule="nonzero"/><path fill="#000000" d="M 228.699219 182.539062 C 229.203125 182.539062 229.535156 182.871094 229.535156 183.371094 C 229.535156 183.871094 229.203125 184.203125 228.699219 184.203125 L 205.609375 184.203125 C 205.109375 184.203125 204.773438 183.871094 204.773438 183.371094 C 204.773438 182.871094 205.109375 182.539062 205.609375 182.539062 Z M 228.699219 182.539062 " fill-opacity="1" fill-rule="nonzero"/><path fill="#000000" d="M 228.699219 186.867188 C 229.203125 186.867188 229.535156 187.203125 229.535156 187.699219 C 229.535156 188.199219 229.203125 188.535156 228.699219 188.535156 L 205.609375 188.535156 C 205.109375 188.535156 204.773438 188.199219 204.773438 187.699219 C 204.773438 187.203125 205.109375 186.867188 205.609375 186.867188 Z M 228.699219 186.867188 " fill-opacity="1" fill-rule="nonzero"/><path fill="#ffffff" d="M 228.699219 124.90625 L 228.699219 168.378906 C 228.699219 169.546875 227.695312 170.546875 226.523438 170.546875 L 148.558594 170.546875 C 147.386719 170.546875 146.382812 169.546875 146.382812 168.378906 L 146.382812 124.90625 C 146.382812 123.738281 147.386719 122.742188 148.558594 122.742188 L 226.691406 122.742188 C 227.863281 122.742188 228.699219 123.738281 228.699219 124.90625 Z M 226.191406 165.214844 L 226.191406 126.570312 C 226.191406 125.90625 225.6875 125.238281 224.851562 125.238281 L 150.230469 125.238281 C 149.5625 125.238281 148.894531 125.90625 148.894531 126.570312 L 148.894531 165.214844 C 148.894531 165.882812 149.394531 166.546875 150.230469 166.546875 L 224.851562 166.546875 C 225.519531 166.546875 226.191406 165.882812 226.191406 165.214844 Z M 226.191406 165.214844 " fill-opacity="1" fill-rule="nonzero"/><path fill="#000000" d="M 226.191406 126.570312 L 226.191406 165.214844 C 226.191406 165.882812 225.6875 166.546875 224.851562 166.546875 L 150.230469 166.546875 C 149.5625 166.546875 148.894531 165.882812 148.894531 165.214844 L 148.894531 126.570312 C 148.894531 125.90625 149.394531 125.238281 150.230469 125.238281 L 224.851562 125.238281 C 225.519531 125.238281 226.191406 125.90625 226.191406 126.570312 Z M 224.515625 164.882812 L 224.515625 126.90625 L 150.566406 126.90625 L 150.566406 164.882812 Z M 224.515625 164.882812 " fill-opacity="1" fill-rule="nonzero"/><path fill="#38b6ff" d="M 224.515625 126.90625 L 224.515625 164.882812 L 170.308594 164.882812 L 170.308594 160.050781 C 170.980469 160.050781 171.648438 159.386719 171.648438 158.71875 L 171.648438 141.894531 C 171.648438 141.230469 170.980469 140.5625 170.308594 140.5625 L 157.425781 140.5625 C 156.757812 140.5625 156.089844 141.230469 156.089844 141.894531 L 156.089844 158.71875 C 156.089844 159.386719 156.757812 160.050781 157.425781 160.050781 L 157.425781 164.882812 L 150.566406 164.882812 L 150.566406 126.90625 Z M 218.996094 132.734375 C 218.996094 132.234375 218.660156 131.902344 218.160156 131.902344 L 156.925781 131.902344 C 156.421875 131.902344 156.089844 132.234375 156.089844 132.734375 C 156.089844 133.234375 156.421875 133.566406 156.925781 133.566406 L 218.160156 133.566406 C 218.660156 133.566406 218.996094 133.066406 218.996094 132.734375 Z M 218.996094 141.394531 C 218.996094 140.894531 218.660156 140.5625 218.160156 140.5625 L 177.839844 140.5625 C 177.335938 140.5625 177 140.894531 177 141.394531 C 177 141.894531 177.335938 142.230469 177.839844 142.230469 L 218.328125 142.230469 C 218.660156 142.230469 218.996094 141.894531 218.996094 141.394531 Z M 218.996094 147.226562 C 218.996094 146.726562 218.660156 146.394531 218.160156 146.394531 L 177.839844 146.394531 C 177.335938 146.394531 177 146.726562 177 147.226562 C 177 147.726562 177.335938 148.058594 177.839844 148.058594 L 218.328125 148.058594 C 218.660156 148.058594 218.996094 147.726562 218.996094 147.226562 Z M 218.996094 153.222656 C 218.996094 152.722656 218.660156 152.390625 218.160156 152.390625 L 177.839844 152.390625 C 177.335938 152.390625 177 152.722656 177 153.222656 C 177 153.722656 177.335938 154.054688 177.839844 154.054688 L 218.328125 154.054688 C 218.660156 154.054688 218.996094 153.722656 218.996094 153.222656 Z M 218.996094 159.21875 C 218.996094 158.71875 218.660156 158.386719 218.160156 158.386719 L 177.839844 158.386719 C 177.335938 158.386719 177 158.71875 177 159.21875 C 177 159.71875 177.335938 160.050781 177.839844 160.050781 L 218.328125 160.050781 C 218.660156 160.050781 218.996094 159.550781 218.996094 159.21875 Z M 218.996094 159.21875 " fill-opacity="1" fill-rule="nonzero"/><path fill="#000000" d="M 216.988281 176.042969 L 218.660156 176.042969 L 218.660156 176.875 L 216.988281 176.875 Z M 216.988281 176.042969 " fill-opacity="1" fill-rule="nonzero"/><path fill="#000000" d="M 216.988281 172.210938 L 218.660156 172.210938 L 218.660156 176.042969 L 216.988281 176.042969 Z M 216.988281 172.210938 " fill-opacity="1" fill-rule="nonzero"/><path fill="#000000" d="M 216.988281 171.378906 L 218.660156 171.378906 L 218.660156 172.210938 L 216.988281 172.210938 Z M 216.988281 171.378906 " fill-opacity="1" fill-rule="nonzero"/><path fill="#000000" d="M 218.160156 131.902344 C 218.660156 131.902344 218.996094 132.234375 218.996094 132.734375 C 218.996094 133.234375 218.660156 133.566406 218.160156 133.566406 L 156.925781 133.566406 C 156.421875 133.566406 156.089844 133.234375 156.089844 132.734375 C 156.089844 132.234375 156.421875 131.902344 156.925781 131.902344 Z M 218.160156 131.902344 " fill-opacity="1" fill-rule="nonzero"/><path fill="#000000" d="M 218.160156 140.5625 C 218.660156 140.5625 218.996094 140.894531 218.996094 141.394531 C 218.996094 141.894531 218.660156 142.230469 218.160156 142.230469 L 177.839844 142.230469 C 177.335938 142.230469 177 141.894531 177 141.394531 C 177 140.894531 177.335938 140.5625 177.839844 140.5625 Z M 218.160156 140.5625 " fill-opacity="1" fill-rule="nonzero"/><path fill="#000000" d="M 218.160156 146.394531 C 218.660156 146.394531 218.996094 146.726562 218.996094 147.226562 C 218.996094 147.726562 218.660156 148.058594 218.160156 148.058594 L 177.839844 148.058594 C 177.335938 148.058594 177 147.726562 177 147.226562 C 177 146.726562 177.335938 146.394531 177.839844 146.394531 Z M 218.160156 146.394531 " fill-opacity="1" fill-rule="nonzero"/><path fill="#000000" d="M 218.160156 152.390625 C 218.660156 152.390625 218.996094 152.722656 218.996094 153.222656 C 218.996094 153.722656 218.660156 154.054688 218.160156 154.054688 L 177.839844 154.054688 C 177.335938 154.054688 177 153.722656 177 153.222656 C 177 152.722656 177.335938 152.390625 177.839844 152.390625 Z M 218.160156 152.390625 " fill-opacity="1" fill-rule="nonzero"/><path fill="#000000" d="M 218.160156 158.386719 C 218.660156 158.386719 218.996094 158.71875 218.996094 159.21875 C 218.996094 159.71875 218.660156 160.050781 218.160156 160.050781 L 177.839844 160.050781 C 177.335938 160.050781 177 159.71875 177 159.21875 C 177 158.71875 177.335938 158.386719 177.839844 158.386719 Z M 218.160156 158.386719 " fill-opacity="1" fill-rule="nonzero"/><path fill="#000000" d="M 198.417969 188.699219 C 198.417969 189.199219 198.417969 189.535156 198.082031 189.867188 L 197.746094 190.199219 L 177.503906 190.199219 L 177.167969 189.867188 C 177 189.535156 176.835938 189.199219 176.835938 188.699219 L 177.839844 182.039062 C 178.003906 181.371094 178.339844 181.039062 178.84375 181.039062 L 196.242188 181.039062 C 196.742188 181.039062 197.246094 181.371094 197.246094 182.039062 Z M 196.578125 188.535156 L 195.738281 182.539062 L 179.34375 182.539062 L 178.507812 188.535156 Z M 196.578125 188.535156 " fill-opacity="1" fill-rule="nonzero"/><path fill="#38b6ff" d="M 197.246094 190.199219 L 197.246094 193.699219 L 136.011719 193.699219 C 135.507812 193.699219 135.175781 193.363281 134.839844 193.03125 C 134.839844 192.53125 134.839844 192.03125 135.175781 191.699219 L 145.214844 178.539062 C 145.714844 178.039062 146.382812 177.707031 147.054688 177.707031 L 196.242188 177.707031 L 196.242188 180.871094 L 178.84375 180.871094 C 178.339844 180.871094 177.839844 181.371094 177.839844 181.871094 L 176.835938 188.535156 C 176.835938 189.035156 176.835938 189.367188 177.167969 189.699219 L 177.503906 190.03125 L 197.246094 190.03125 Z M 170.308594 183.371094 C 170.308594 182.871094 169.976562 182.539062 169.472656 182.539062 L 146.382812 182.539062 C 145.882812 182.539062 145.546875 182.871094 145.546875 183.371094 C 145.546875 183.871094 145.882812 184.203125 146.382812 184.203125 L 169.304688 184.203125 C 169.808594 184.203125 170.308594 183.871094 170.308594 183.371094 Z M 170.308594 187.699219 C 170.308594 187.203125 169.976562 186.867188 169.472656 186.867188 L 146.382812 186.867188 C 145.882812 186.867188 145.546875 187.203125 145.546875 187.699219 C 145.546875 188.199219 145.882812 188.535156 146.382812 188.535156 L 169.304688 188.535156 C 169.808594 188.535156 170.308594 188.035156 170.308594 187.699219 Z M 170.308594 187.699219 " fill-opacity="1" fill-rule="nonzero"/><path fill="#ffffff" d="M 195.738281 182.539062 L 196.578125 188.535156 L 178.507812 188.535156 L 179.34375 182.539062 Z M 195.738281 182.539062 " fill-opacity="1" fill-rule="nonzero"/><path fill="#000000" d="M 171.648438 141.894531 L 171.648438 158.71875 C 171.648438 159.386719 170.980469 160.050781 170.308594 160.050781 L 157.425781 160.050781 C 156.757812 160.050781 156.089844 159.386719 156.089844 158.71875 L 156.089844 141.894531 C 156.089844 141.230469 156.757812 140.5625 157.425781 140.5625 L 170.308594 140.5625 C 170.980469 140.5625 171.648438 141.230469 171.648438 141.894531 Z M 169.976562 158.386719 L 169.976562 142.230469 L 157.761719 142.230469 L 157.761719 158.386719 Z M 169.976562 158.386719 " fill-opacity="1" fill-rule="nonzero"/><path fill="#38b6ff" d="M 157.425781 160.050781 L 170.308594 160.050781 L 170.308594 164.882812 L 157.425781 164.882812 Z M 157.425781 160.050781 " fill-opacity="1" fill-rule="nonzero"/><path fill="#ffffff" d="M 157.761719 142.230469 L 169.976562 142.230469 L 169.976562 158.386719 L 157.761719 158.386719 Z M 157.761719 142.230469 " fill-opacity="1" fill-rule="nonzero"/><path fill="#000000" d="M 169.472656 182.539062 C 169.976562 182.539062 170.308594 182.871094 170.308594 183.371094 C 170.308594 183.871094 169.976562 184.203125 169.472656 184.203125 L 146.382812 184.203125 C 145.882812 184.203125 145.546875 183.871094 145.546875 183.371094 C 145.546875 182.871094 145.882812 182.539062 146.382812 182.539062 Z M 169.472656 182.539062 " fill-opacity="1" fill-rule="nonzero"/><path fill="#000000" d="M 169.472656 186.867188 C 169.976562 186.867188 170.308594 187.203125 170.308594 187.699219 C 170.308594 188.199219 169.976562 188.535156 169.472656 188.535156 L 146.382812 188.535156 C 145.882812 188.535156 145.546875 188.199219 145.546875 187.699219 C 145.546875 187.203125 145.882812 186.867188 146.382812 186.867188 Z M 169.472656 186.867188 " fill-opacity="1" fill-rule="nonzero"/><path fill="#000000" d="M 156.421875 176.042969 L 158.097656 176.042969 L 158.097656 176.875 L 156.421875 176.875 Z M 156.421875 176.042969 " fill-opacity="1" fill-rule="nonzero"/><path fill="#000000" d="M 156.421875 172.210938 L 158.097656 172.210938 L 158.097656 176.042969 L 156.421875 176.042969 Z M 156.421875 172.210938 " fill-opacity="1" fill-rule="nonzero"/><path fill="#000000" d="M 156.421875 171.378906 L 158.097656 171.378906 L 158.097656 172.210938 L 156.421875 172.210938 Z M 156.421875 171.378906 " fill-opacity="1" fill-rule="nonzero"/><g clip-path="url(#b526271710)"><path fill="#ffffff" d="M 187.476562 262.5 C 146.15625 262.5 112.5 228.84375 112.5 187.476562 C 112.5 146.105469 146.15625 112.5 187.476562 112.5 C 228.792969 112.5 262.449219 146.15625 262.449219 187.476562 C 262.5 228.84375 228.84375 262.5 187.476562 262.5 Z M 187.476562 113.769531 C 146.816406 113.769531 113.769531 146.816406 113.769531 187.476562 C 113.769531 228.132812 146.867188 261.230469 187.476562 261.230469 C 228.082031 261.230469 261.230469 228.132812 261.230469 187.476562 C 261.230469 146.816406 228.132812 113.769531 187.476562 113.769531 Z M 187.476562 113.769531 " fill-opacity="1" fill-rule="nonzero"/></g><g clip-path="url(#486df8dba3)"><path fill="#19191e" d="M 327.597656 227.378906 C 323.8125 240.261719 318.035156 252.484375 310.867188 263.742188 C 304.945312 272.902344 298.214844 281.515625 290.652344 289.34375 C 289.671875 290.414062 288.582031 291.375 287.542969 292.382812 C 286.488281 293.375 285.460938 294.398438 284.382812 295.367188 L 281.105469 298.21875 L 279.464844 299.644531 L 277.765625 300.996094 L 274.367188 303.710938 C 273.21875 304.589844 272.03125 305.421875 270.867188 306.28125 C 268.5625 308.042969 266.113281 309.59375 263.714844 311.226562 C 263.367188 311.457031 263.003906 311.703125 262.625 311.957031 C 262.234375 312.191406 261.828125 312.433594 261.40625 312.691406 C 260.558594 313.195312 259.648438 313.742188 258.679688 314.320312 C 256.761719 315.523438 254.492188 316.65625 252.046875 317.960938 C 251.429688 318.277344 250.8125 318.625 250.160156 318.933594 C 249.507812 319.238281 248.839844 319.550781 248.160156 319.863281 C 246.800781 320.492188 245.390625 321.144531 243.933594 321.816406 C 240.953125 322.984375 237.84375 324.382812 234.453125 325.46875 C 221.0625 330.324219 204.351562 333.324219 187.582031 333.394531 C 170.8125 333.324219 154.101562 330.324219 140.714844 325.46875 C 137.320312 324.382812 134.214844 322.984375 131.230469 321.816406 C 129.777344 321.144531 128.367188 320.492188 127.007812 319.863281 C 126.324219 319.550781 125.65625 319.238281 125.003906 318.9375 C 124.351562 318.625 123.734375 318.277344 123.121094 317.960938 C 120.671875 316.660156 118.402344 315.523438 116.488281 314.320312 C 115.519531 313.742188 114.609375 313.195312 113.761719 312.691406 C 113.339844 312.4375 112.929688 312.191406 112.539062 311.957031 C 112.160156 311.703125 111.796875 311.457031 111.453125 311.226562 C 102.34375 305.257812 93.785156 298.476562 86.003906 290.855469 C 77.800781 282.660156 70.625 273.480469 64.300781 263.742188 C 57.128906 252.484375 51.351562 240.261719 47.566406 227.378906 C 43.625 214.535156 41.804688 201.058594 41.6875 187.582031 C 41.804688 174.105469 43.625 160.628906 47.566406 147.789062 C 51.351562 134.902344 57.128906 122.679688 64.300781 111.421875 C 70.21875 102.261719 76.949219 93.652344 84.515625 85.820312 C 85.492188 84.75 86.582031 83.792969 87.621094 82.78125 C 88.679688 81.789062 89.703125 80.765625 90.78125 79.800781 L 94.0625 76.945312 L 95.699219 75.519531 L 97.402344 74.167969 L 100.796875 71.457031 C 101.949219 70.578125 103.132812 69.746094 104.300781 68.882812 C 106.601562 67.121094 109.050781 65.570312 111.453125 63.941406 C 111.796875 63.707031 112.160156 63.464844 112.539062 63.207031 C 112.929688 62.972656 113.335938 62.730469 113.761719 62.476562 C 114.605469 61.96875 115.515625 61.425781 116.488281 60.84375 C 118.402344 59.640625 120.671875 58.507812 123.117188 57.207031 C 123.734375 56.890625 124.351562 56.542969 125.003906 56.230469 C 125.65625 55.925781 126.324219 55.617188 127.003906 55.300781 C 128.367188 54.671875 129.777344 54.019531 131.230469 53.347656 C 134.210938 52.183594 137.320312 50.78125 140.714844 49.695312 C 154.101562 44.839844 170.8125 41.839844 187.582031 41.769531 C 204.351562 41.839844 221.0625 44.839844 234.449219 49.695312 C 237.84375 50.78125 240.953125 52.183594 243.933594 53.347656 C 245.390625 54.019531 246.796875 54.671875 248.160156 55.300781 C 248.839844 55.617188 249.507812 55.925781 250.160156 56.230469 C 250.8125 56.539062 251.429688 56.890625 252.046875 57.207031 C 254.492188 58.507812 256.761719 59.640625 258.675781 60.84375 C 259.648438 61.425781 260.558594 61.96875 261.402344 62.476562 C 261.828125 62.726562 262.234375 62.972656 262.625 63.207031 C 263.003906 63.460938 263.367188 63.707031 263.710938 63.9375 C 272.824219 69.910156 281.382812 76.691406 289.160156 84.308594 C 297.367188 92.503906 304.539062 101.6875 310.863281 111.421875 C 318.035156 122.679688 323.8125 134.902344 327.597656 147.789062 C 331.539062 160.628906 333.359375 174.105469 333.476562 187.582031 C 333.359375 201.058594 331.539062 214.535156 327.597656 227.378906 Z M 336.832031 187.484375 L 336.828125 187.472656 C 336.707031 173.710938 334.855469 159.941406 330.847656 146.808594 C 326.988281 133.640625 321.085938 121.140625 313.722656 109.65625 L 310.183594 104.335938 C 310.183594 104.335938 309.160156 102.90625 307.625 100.761719 C 306.148438 98.570312 303.886719 95.871094 301.730469 93.097656 C 299.402344 90.460938 297.171875 87.742188 295.296875 85.886719 C 293.472656 83.984375 292.257812 82.714844 292.257812 82.714844 C 292.257812 82.714844 291.949219 82.402344 291.394531 81.867188 C 290.84375 81.335938 290.054688 80.570312 289.105469 79.65625 C 287.257812 77.773438 284.574219 75.503906 281.941406 73.175781 C 280.589844 72.054688 279.199219 70.976562 277.914062 69.945312 C 277.269531 69.433594 276.648438 68.9375 276.058594 68.464844 C 275.445312 68.023438 274.867188 67.609375 274.332031 67.222656 C 272.195312 65.679688 270.769531 64.652344 270.769531 64.652344 C 270.769531 64.652344 270.457031 64.398438 269.957031 64.074219 C 269.457031 63.742188 268.796875 63.300781 268.136719 62.855469 C 266.808594 61.96875 265.480469 61.078125 265.480469 61.078125 C 265.128906 60.839844 264.757812 60.589844 264.371094 60.328125 C 263.972656 60.085938 263.554688 59.835938 263.125 59.574219 C 262.257812 59.054688 261.328125 58.496094 260.335938 57.898438 C 258.378906 56.664062 256.058594 55.5 253.554688 54.164062 C 252.925781 53.839844 252.292969 53.484375 251.628906 53.164062 C 250.960938 52.851562 250.277344 52.535156 249.582031 52.210938 C 248.1875 51.566406 246.746094 50.898438 245.257812 50.207031 C 242.207031 49.007812 239.023438 47.578125 235.554688 46.460938 C 221.851562 41.484375 204.742188 38.398438 187.582031 38.332031 C 170.425781 38.398438 153.3125 41.484375 139.609375 46.460938 C 136.140625 47.578125 132.957031 49.007812 129.90625 50.207031 C 128.417969 50.898438 126.976562 51.566406 125.582031 52.210938 C 124.886719 52.535156 124.203125 52.851562 123.535156 53.164062 C 122.871094 53.484375 122.238281 53.839844 121.609375 54.164062 C 119.105469 55.5 116.785156 56.664062 114.828125 57.898438 C 113.835938 58.496094 112.90625 59.054688 112.039062 59.574219 C 111.609375 59.835938 111.191406 60.085938 110.792969 60.328125 C 110.40625 60.589844 110.035156 60.839844 109.683594 61.078125 C 109.683594 61.078125 108.355469 61.96875 107.03125 62.855469 C 106.367188 63.300781 105.703125 63.742188 105.207031 64.074219 C 104.707031 64.398438 104.394531 64.652344 104.394531 64.652344 C 104.394531 64.652344 102.972656 65.679688 100.832031 67.222656 C 100.300781 67.609375 99.71875 68.023438 99.109375 68.464844 C 98.515625 68.9375 97.894531 69.433594 97.25 69.945312 C 95.964844 70.976562 94.574219 72.054688 93.222656 73.175781 C 90.59375 75.503906 87.910156 77.773438 86.058594 79.65625 C 85.113281 80.570312 84.324219 81.335938 83.769531 81.867188 C 83.214844 82.402344 82.910156 82.714844 82.910156 82.714844 C 82.910156 82.714844 81.691406 83.984375 79.871094 85.886719 C 77.992188 87.742188 75.761719 90.460938 73.4375 93.097656 C 71.277344 95.871094 69.015625 98.570312 67.539062 100.761719 C 66.003906 102.90625 64.980469 104.339844 64.980469 104.339844 L 61.441406 109.65625 C 54.082031 121.140625 48.175781 133.640625 44.320312 146.808594 C 40.308594 159.941406 38.457031 173.710938 38.335938 187.472656 L 38.335938 187.484375 L 38.332031 187.582031 L 38.335938 187.679688 L 38.335938 187.695312 C 38.457031 201.457031 40.308594 215.226562 44.320312 228.355469 C 48.175781 241.523438 54.082031 254.027344 61.441406 265.507812 L 64.980469 270.828125 C 64.980469 270.828125 66.003906 272.257812 67.539062 274.402344 C 69.015625 276.59375 71.277344 279.292969 73.4375 282.066406 C 75.761719 284.703125 77.992188 287.421875 79.871094 289.277344 C 81.691406 291.179688 82.910156 292.449219 82.910156 292.449219 C 82.910156 292.449219 83.214844 292.765625 83.769531 293.296875 C 84.324219 293.828125 85.113281 294.59375 86.058594 295.507812 C 87.910156 297.390625 90.59375 299.660156 93.222656 301.988281 C 94.574219 303.113281 95.964844 304.1875 97.25 305.21875 C 97.894531 305.734375 98.515625 306.226562 99.109375 306.699219 C 99.71875 307.140625 100.300781 307.558594 100.832031 307.941406 C 102.972656 309.484375 104.394531 310.511719 104.394531 310.511719 C 104.394531 310.511719 104.707031 310.765625 105.207031 311.089844 C 105.707031 311.421875 106.367188 311.867188 107.03125 312.3125 C 108.355469 313.199219 109.683594 314.085938 109.683594 314.085938 C 110.039062 314.324219 110.40625 314.574219 110.792969 314.835938 C 111.195312 315.078125 111.609375 315.328125 112.042969 315.589844 C 112.90625 316.113281 113.839844 316.671875 114.828125 317.265625 C 116.789062 318.5 119.105469 319.667969 121.609375 321 C 122.238281 321.324219 122.871094 321.679688 123.535156 322 C 124.207031 322.3125 124.890625 322.632812 125.582031 322.957031 C 126.976562 323.601562 128.417969 324.269531 129.90625 324.957031 C 132.957031 326.15625 136.140625 327.585938 139.613281 328.703125 C 153.3125 333.683594 170.425781 336.765625 187.582031 336.832031 C 204.742188 336.765625 221.851562 333.683594 235.554688 328.703125 C 239.023438 327.585938 242.207031 326.15625 245.257812 324.957031 C 246.746094 324.269531 248.1875 323.601562 249.582031 322.953125 C 250.277344 322.628906 250.960938 322.3125 251.628906 322 C 252.296875 321.679688 252.925781 321.324219 253.558594 321 C 256.0625 319.667969 258.378906 318.5 260.339844 317.265625 C 261.328125 316.671875 262.257812 316.109375 263.125 315.589844 C 263.554688 315.328125 263.972656 315.078125 264.371094 314.835938 C 264.757812 314.574219 265.128906 314.324219 265.484375 314.085938 C 265.484375 314.085938 266.808594 313.199219 268.136719 312.3125 C 268.796875 311.867188 269.460938 311.421875 269.957031 311.089844 C 270.457031 310.765625 270.769531 310.511719 270.769531 310.511719 C 270.769531 310.511719 272.195312 309.484375 274.332031 307.941406 C 274.867188 307.558594 275.445312 307.140625 276.058594 306.699219 C 276.648438 306.226562 277.269531 305.734375 277.914062 305.21875 C 279.199219 304.1875 280.589844 303.113281 281.941406 301.988281 C 284.574219 299.660156 287.257812 297.390625 289.105469 295.507812 C 290.054688 294.59375 290.84375 293.828125 291.394531 293.296875 C 291.949219 292.765625 292.257812 292.449219 292.257812 292.449219 C 292.257812 292.449219 293.472656 291.179688 295.296875 289.277344 C 297.171875 287.421875 299.402344 284.703125 301.730469 282.066406 C 303.886719 279.292969 306.148438 276.59375 307.625 274.402344 C 309.160156 272.257812 310.183594 270.828125 310.183594 270.828125 L 313.722656 265.507812 C 321.085938 254.027344 326.988281 241.523438 330.847656 228.355469 C 334.855469 215.222656 336.707031 201.453125 336.828125 187.691406 L 336.832031 187.679688 L 336.832031 187.484375 " fill-opacity="1" fill-rule="nonzero"/></g><g fill="#000000" fill-opacity="1"><g transform="translate(96.559462, 219.754176)"><g><path d="M 1.203125 0 L 1.203125 -13.296875 L 6.3125 -13.296875 C 7.300781 -13.296875 8.222656 -13.125 9.078125 -12.78125 C 9.941406 -12.445312 10.6875 -11.976562 11.3125 -11.375 C 11.9375 -10.78125 12.429688 -10.070312 12.796875 -9.25 C 13.160156 -8.425781 13.34375 -7.546875 13.34375 -6.609375 C 13.34375 -5.679688 13.160156 -4.8125 12.796875 -4 C 12.429688 -3.195312 11.9375 -2.5 11.3125 -1.90625 C 10.6875 -1.320312 9.941406 -0.859375 9.078125 -0.515625 C 8.222656 -0.171875 7.300781 0 6.3125 0 Z M 6.28125 -10.84375 L 3.953125 -10.84375 L 3.953125 -2.453125 L 6.28125 -2.453125 C 6.863281 -2.453125 7.410156 -2.554688 7.921875 -2.765625 C 8.441406 -2.984375 8.890625 -3.28125 9.265625 -3.65625 C 9.648438 -4.03125 9.945312 -4.46875 10.15625 -4.96875 C 10.375 -5.476562 10.484375 -6.023438 10.484375 -6.609375 C 10.484375 -7.203125 10.375 -7.757812 10.15625 -8.28125 C 9.945312 -8.800781 9.648438 -9.25 9.265625 -9.625 C 8.890625 -10.007812 8.441406 -10.304688 7.921875 -10.515625 C 7.410156 -10.734375 6.863281 -10.84375 6.28125 -10.84375 Z M 6.28125 -10.84375 "/></g></g></g><g fill="#000000" fill-opacity="1"><g transform="translate(112.611588, 219.754176)"><g><path d="M -0.078125 0 L 5.390625 -13.296875 L 8.59375 -13.296875 L 13.984375 0 L 11 0 L 9.65625 -3.5 L 4.15625 -3.5 L 2.796875 0 Z M 5.015625 -5.703125 L 8.8125 -5.703125 L 6.9375 -10.609375 Z M 5.015625 -5.703125 "/></g></g></g><g fill="#000000" fill-opacity="1"><g transform="translate(128.549731, 219.754176)"><g><path d="M 1.203125 -13.296875 L 3.8125 -13.296875 L 10.4375 -4.6875 L 10.4375 -13.296875 L 13.015625 -13.296875 L 13.015625 0 L 10.578125 0 L 3.796875 -8.890625 L 3.796875 0 L 1.203125 0 Z M 1.203125 -13.296875 "/></g></g></g><g fill="#000000" fill-opacity="1"><g transform="translate(144.810817, 219.754176)"><g><path d="M 1.203125 0 L 1.203125 -13.296875 L 3.953125 -13.296875 L 3.953125 0 Z M 1.203125 0 "/></g></g></g><g fill="#000000" fill-opacity="1"><g transform="translate(152.010758, 219.754176)"><g><path d="M 1.203125 0 L 1.203125 -13.296875 L 11.421875 -13.296875 L 11.421875 -10.90625 L 3.953125 -10.90625 L 3.953125 -7.859375 L 8.875 -7.859375 L 8.875 -5.546875 L 3.953125 -5.546875 L 3.953125 -2.390625 L 11.5 -2.390625 L 11.5 0 Z M 1.203125 0 "/></g></g></g><g fill="#000000" fill-opacity="1"><g transform="translate(166.296251, 219.754176)"><g><path d="M 1.203125 0 L 1.203125 -13.296875 L 3.953125 -13.296875 L 3.953125 -2.4375 L 11.234375 -2.4375 L 11.234375 0 Z M 1.203125 0 "/></g></g></g><g fill="#000000" fill-opacity="1"><g transform="translate(180.258798, 219.754176)"><g/></g></g><g fill="#000000" fill-opacity="1"><g transform="translate(186.110007, 219.754176)"><g><path d="M 6.328125 0 L 3.4375 0 L 0.5 -13.296875 L 3.328125 -13.296875 L 5.125 -4.28125 L 7.734375 -13.296875 L 10.3125 -13.296875 L 12.90625 -4.3125 L 14.703125 -13.296875 L 17.4375 -13.296875 L 14.5 0 L 11.609375 0 L 8.96875 -9.296875 Z M 6.328125 0 "/></g></g></g><g fill="#000000" fill-opacity="1"><g transform="translate(206.075339, 219.754176)"><g><path d="M -0.078125 0 L 5.390625 -13.296875 L 8.59375 -13.296875 L 13.984375 0 L 11 0 L 9.65625 -3.5 L 4.15625 -3.5 L 2.796875 0 Z M 5.015625 -5.703125 L 8.8125 -5.703125 L 6.9375 -10.609375 Z M 5.015625 -5.703125 "/></g></g></g><g fill="#000000" fill-opacity="1"><g transform="translate(222.013479, 219.754176)"><g><path d="M 1.203125 0 L 1.203125 -13.296875 L 3.953125 -13.296875 L 3.953125 -2.4375 L 11.234375 -2.4375 L 11.234375 0 Z M 1.203125 0 "/></g></g></g><g fill="#000000" fill-opacity="1"><g transform="translate(235.976025, 219.754176)"><g><path d="M 1.203125 0 L 1.203125 -13.296875 L 3.953125 -13.296875 L 3.953125 -7.328125 L 9.765625 -13.296875 L 13.125 -13.296875 L 6.703125 -6.96875 L 13.4375 0 L 9.75 0 L 3.953125 -6.234375 L 3.953125 0 Z M 1.203125 0 "/></g></g></g><g fill="#000000" fill-opacity="1"><g transform="translate(251.249309, 219.754176)"><g><path d="M 1.203125 0 L 1.203125 -13.296875 L 11.421875 -13.296875 L 11.421875 -10.90625 L 3.953125 -10.90625 L 3.953125 -7.859375 L 8.875 -7.859375 L 8.875 -5.546875 L 3.953125 -5.546875 L 3.953125 -2.390625 L 11.5 -2.390625 L 11.5 0 Z M 1.203125 0 "/></g></g></g><g fill="#000000" fill-opacity="1"><g transform="translate(265.534797, 219.754176)"><g><path d="M 1.203125 0 L 1.203125 -13.296875 L 7.6875 -13.296875 C 8.363281 -13.296875 8.984375 -13.191406 9.546875 -12.984375 C 10.109375 -12.785156 10.59375 -12.503906 11 -12.140625 C 11.40625 -11.785156 11.722656 -11.351562 11.953125 -10.84375 C 12.179688 -10.34375 12.296875 -9.785156 12.296875 -9.171875 C 12.296875 -8.335938 12.054688 -7.59375 11.578125 -6.9375 C 11.109375 -6.28125 10.476562 -5.789062 9.6875 -5.46875 L 12.640625 0 L 9.5625 0 L 6.953125 -5.09375 L 3.953125 -5.09375 L 3.953125 0 Z M 7.453125 -10.921875 L 3.953125 -10.921875 L 3.953125 -7.359375 L 7.453125 -7.359375 C 8.066406 -7.359375 8.5625 -7.519531 8.9375 -7.84375 C 9.3125 -8.175781 9.5 -8.609375 9.5 -9.140625 C 9.5 -9.671875 9.3125 -10.097656 8.9375 -10.421875 C 8.5625 -10.753906 8.066406 -10.921875 7.453125 -10.921875 Z M 7.453125 -10.921875 "/></g></g></g><g fill="#38b6ff" fill-opacity="1"><g transform="translate(93.587159, 243.613388)"><g><path d="M 0.875 0 L 0.875 -9.796875 L 4.640625 -9.796875 C 5.367188 -9.796875 6.050781 -9.671875 6.6875 -9.421875 C 7.320312 -9.171875 7.867188 -8.828125 8.328125 -8.390625 C 8.796875 -7.953125 9.160156 -7.425781 9.421875 -6.8125 C 9.691406 -6.207031 9.828125 -5.5625 9.828125 -4.875 C 9.828125 -4.1875 9.691406 -3.546875 9.421875 -2.953125 C 9.160156 -2.359375 8.796875 -1.84375 8.328125 -1.40625 C 7.867188 -0.96875 7.320312 -0.625 6.6875 -0.375 C 6.050781 -0.125 5.367188 0 4.640625 0 Z M 4.640625 -8 L 2.90625 -8 L 2.90625 -1.8125 L 4.640625 -1.8125 C 5.066406 -1.8125 5.46875 -1.890625 5.84375 -2.046875 C 6.21875 -2.203125 6.546875 -2.414062 6.828125 -2.6875 C 7.109375 -2.96875 7.328125 -3.296875 7.484375 -3.671875 C 7.648438 -4.046875 7.734375 -4.445312 7.734375 -4.875 C 7.734375 -5.3125 7.648438 -5.71875 7.484375 -6.09375 C 7.328125 -6.476562 7.109375 -6.8125 6.828125 -7.09375 C 6.546875 -7.375 6.21875 -7.59375 5.84375 -7.75 C 5.46875 -7.914062 5.066406 -8 4.640625 -8 Z M 4.640625 -8 "/></g></g></g><g fill="#38b6ff" fill-opacity="1"><g transform="translate(111.767406, 243.613388)"><g><path d="M 0.875 0 L 0.875 -9.796875 L 8.40625 -9.796875 L 8.40625 -8.03125 L 2.90625 -8.03125 L 2.90625 -5.796875 L 6.53125 -5.796875 L 6.53125 -4.09375 L 2.90625 -4.09375 L 2.90625 -1.765625 L 8.46875 -1.765625 L 8.46875 0 Z M 0.875 0 "/></g></g></g><g fill="#38b6ff" fill-opacity="1"><g transform="translate(128.646379, 243.613388)"><g><path d="M 3.921875 0 L -0.0625 -9.796875 L 2.140625 -9.796875 L 5.140625 -2.0625 L 8.203125 -9.796875 L 10.296875 -9.796875 L 6.265625 0 Z M 3.921875 0 "/></g></g></g><g fill="#38b6ff" fill-opacity="1"><g transform="translate(146.742674, 243.613388)"><g><path d="M 0.875 0 L 0.875 -9.796875 L 8.40625 -9.796875 L 8.40625 -8.03125 L 2.90625 -8.03125 L 2.90625 -5.796875 L 6.53125 -5.796875 L 6.53125 -4.09375 L 2.90625 -4.09375 L 2.90625 -1.765625 L 8.46875 -1.765625 L 8.46875 0 Z M 0.875 0 "/></g></g></g><g fill="#38b6ff" fill-opacity="1"><g transform="translate(163.621644, 243.613388)"><g><path d="M 0.875 0 L 0.875 -9.796875 L 2.90625 -9.796875 L 2.90625 -1.796875 L 8.28125 -1.796875 L 8.28125 0 Z M 0.875 0 "/></g></g></g><g fill="#38b6ff" fill-opacity="1"><g transform="translate(180.262749, 243.613388)"><g><path d="M 10.875 -4.90625 C 10.875 -4.195312 10.738281 -3.53125 10.46875 -2.90625 C 10.195312 -2.289062 9.832031 -1.753906 9.375 -1.296875 C 8.914062 -0.847656 8.367188 -0.492188 7.734375 -0.234375 C 7.097656 0.0234375 6.414062 0.15625 5.6875 0.15625 C 4.96875 0.15625 4.289062 0.0234375 3.65625 -0.234375 C 3.019531 -0.492188 2.46875 -0.847656 2 -1.296875 C 1.539062 -1.753906 1.175781 -2.289062 0.90625 -2.90625 C 0.632812 -3.53125 0.5 -4.195312 0.5 -4.90625 C 0.5 -5.601562 0.632812 -6.257812 0.90625 -6.875 C 1.175781 -7.5 1.539062 -8.035156 2 -8.484375 C 2.46875 -8.941406 3.019531 -9.300781 3.65625 -9.5625 C 4.289062 -9.820312 4.96875 -9.953125 5.6875 -9.953125 C 6.414062 -9.953125 7.097656 -9.820312 7.734375 -9.5625 C 8.367188 -9.300781 8.914062 -8.941406 9.375 -8.484375 C 9.832031 -8.035156 10.195312 -7.5 10.46875 -6.875 C 10.738281 -6.257812 10.875 -5.601562 10.875 -4.90625 Z M 8.796875 -4.90625 C 8.796875 -5.363281 8.710938 -5.785156 8.546875 -6.171875 C 8.390625 -6.554688 8.171875 -6.890625 7.890625 -7.171875 C 7.617188 -7.460938 7.289062 -7.6875 6.90625 -7.84375 C 6.53125 -8.007812 6.125 -8.09375 5.6875 -8.09375 C 5.25 -8.09375 4.835938 -8.007812 4.453125 -7.84375 C 4.078125 -7.6875 3.75 -7.460938 3.46875 -7.171875 C 3.195312 -6.890625 2.984375 -6.554688 2.828125 -6.171875 C 2.671875 -5.785156 2.59375 -5.363281 2.59375 -4.90625 C 2.59375 -4.457031 2.671875 -4.035156 2.828125 -3.640625 C 2.984375 -3.242188 3.195312 -2.90625 3.46875 -2.625 C 3.75 -2.34375 4.078125 -2.117188 4.453125 -1.953125 C 4.835938 -1.785156 5.25 -1.703125 5.6875 -1.703125 C 6.125 -1.703125 6.53125 -1.785156 6.90625 -1.953125 C 7.289062 -2.117188 7.617188 -2.34375 7.890625 -2.625 C 8.171875 -2.90625 8.390625 -3.242188 8.546875 -3.640625 C 8.710938 -4.035156 8.796875 -4.457031 8.796875 -4.90625 Z M 8.796875 -4.90625 "/></g></g></g><g fill="#38b6ff" fill-opacity="1"><g transform="translate(199.492415, 243.613388)"><g><path d="M 0.875 0 L 0.875 -9.796875 L 5.796875 -9.796875 C 6.273438 -9.796875 6.71875 -9.71875 7.125 -9.5625 C 7.53125 -9.414062 7.875 -9.207031 8.15625 -8.9375 C 8.445312 -8.664062 8.675781 -8.335938 8.84375 -7.953125 C 9.007812 -7.578125 9.09375 -7.164062 9.09375 -6.71875 C 9.09375 -6.28125 9.007812 -5.875 8.84375 -5.5 C 8.675781 -5.132812 8.445312 -4.816406 8.15625 -4.546875 C 7.863281 -4.273438 7.515625 -4.066406 7.109375 -3.921875 C 6.710938 -3.773438 6.273438 -3.703125 5.796875 -3.703125 L 2.90625 -3.703125 L 2.90625 0 Z M 5.578125 -8.046875 L 2.90625 -8.046875 L 2.90625 -5.375 L 5.578125 -5.375 C 6.015625 -5.375 6.363281 -5.492188 6.625 -5.734375 C 6.894531 -5.984375 7.03125 -6.304688 7.03125 -6.703125 C 7.03125 -7.109375 6.894531 -7.429688 6.625 -7.671875 C 6.363281 -7.921875 6.015625 -8.046875 5.578125 -8.046875 Z M 5.578125 -8.046875 "/></g></g></g><g fill="#38b6ff" fill-opacity="1"><g transform="translate(216.875109, 243.613388)"><g><path d="M 6.140625 -0.703125 L 2.765625 -7.203125 L 2.765625 0 L 0.875 0 L 0.875 -9.796875 L 3.484375 -9.796875 L 6.171875 -4.53125 L 8.859375 -9.796875 L 11.46875 -9.796875 L 11.46875 0 L 9.546875 0 L 9.546875 -7.203125 Z M 6.140625 -0.703125 "/></g></g></g><g fill="#38b6ff" fill-opacity="1"><g transform="translate(237.070233, 243.613388)"><g><path d="M 0.875 0 L 0.875 -9.796875 L 8.40625 -9.796875 L 8.40625 -8.03125 L 2.90625 -8.03125 L 2.90625 -5.796875 L 6.53125 -5.796875 L 6.53125 -4.09375 L 2.90625 -4.09375 L 2.90625 -1.765625 L 8.46875 -1.765625 L 8.46875 0 Z M 0.875 0 "/></g></g></g><g fill="#38b6ff" fill-opacity="1"><g transform="translate(253.949203, 243.613388)"><g><path d="M 0.875 -9.796875 L 2.8125 -9.796875 L 7.6875 -3.453125 L 7.6875 -9.796875 L 9.59375 -9.796875 L 9.59375 0 L 7.796875 0 L 2.796875 -6.546875 L 2.796875 0 L 0.875 0 Z M 0.875 -9.796875 "/></g></g></g><g fill="#38b6ff" fill-opacity="1"><g transform="translate(272.283369, 243.613388)"><g><path d="M 0.25 -8.015625 L 0.25 -9.796875 L 8.875 -9.796875 L 8.875 -8.015625 L 5.59375 -8.015625 L 5.59375 0 L 3.5625 0 L 3.5625 -8.015625 Z M 0.25 -8.015625 "/></g></g></g></svg>