<svg xmlns="http://www.w3.org/2000/svg" xmlns:xlink="http://www.w3.org/1999/xlink" width="500" zoomAndPan="magnify" viewBox="0 0 375 374.999991" height="500" preserveAspectRatio="xMidYMid meet" version="1.0"><defs><g/><clipPath id="e9f9c7fca0"><path d="M 133.167969 176 L 241.917969 176 L 241.917969 195.71875 L 133.167969 195.71875 Z M 133.167969 176 " clip-rule="nonzero"/></clipPath></defs><rect x="-37.5" width="450" fill="#ffffff" y="-37.499999" height="449.999989" fill-opacity="1"/><rect x="-37.5" width="450" fill="#ffffff" y="-37.499999" height="449.999989" fill-opacity="1"/><rect x="-37.5" width="450" fill="#171717" y="-37.499999" height="449.999989" fill-opacity="1"/><g clip-path="url(#e9f9c7fca0)"><path fill="#000000" d="M 241.246094 190.699219 C 241.917969 191.53125 242.085938 192.699219 241.582031 193.699219 C 241.082031 194.695312 240.078125 195.363281 238.90625 195.363281 L 136.011719 195.363281 C 134.839844 195.363281 133.835938 194.695312 133.335938 193.699219 C 133 192.699219 133.167969 191.53125 133.835938 190.699219 L 143.875 177.539062 C 144.710938 176.542969 145.882812 176.042969 147.054688 176.042969 L 156.421875 176.042969 L 156.421875 176.875 L 158.097656 176.875 L 158.097656 176.042969 L 216.988281 176.042969 L 216.988281 176.875 L 218.660156 176.875 L 218.660156 176.042969 L 228.03125 176.042969 C 229.203125 176.042969 230.371094 176.542969 231.210938 177.539062 Z M 240.078125 193.03125 C 240.242188 192.53125 240.242188 192.199219 239.910156 191.699219 L 229.871094 178.539062 C 229.367188 178.039062 228.699219 177.707031 228.03125 177.707031 L 147.054688 177.707031 C 146.382812 177.707031 145.714844 178.039062 145.214844 178.539062 L 135.175781 191.699219 C 134.839844 192.03125 134.839844 192.53125 135.007812 193.03125 C 135.175781 193.53125 135.675781 193.699219 136.179688 193.699219 L 239.074219 193.699219 C 239.40625 193.699219 239.910156 193.363281 240.078125 193.03125 Z M 240.078125 193.03125 " fill-opacity="1" fill-rule="nonzero"/></g><path fill="#38b6ff" d="M 240.078125 191.699219 C 240.410156 192.03125 240.410156 192.53125 240.242188 193.03125 C 240.078125 193.53125 239.574219 193.699219 239.074219 193.699219 L 197.246094 193.699219 L 197.246094 190.199219 L 197.746094 190.199219 L 198.082031 189.867188 C 198.25 189.535156 198.417969 189.199219 198.417969 188.699219 L 197.414062 182.039062 C 197.414062 181.371094 196.910156 181.039062 196.410156 181.039062 L 196.410156 177.707031 L 228.199219 177.707031 C 228.867188 177.707031 229.535156 178.039062 230.039062 178.539062 Z M 229.535156 183.371094 C 229.535156 182.871094 229.203125 182.539062 228.699219 182.539062 L 205.609375 182.539062 C 205.109375 182.539062 204.773438 182.871094 204.773438 183.371094 C 204.773438 183.871094 205.109375 184.203125 205.609375 184.203125 L 228.53125 184.203125 C 229.203125 184.203125 229.535156 183.871094 229.535156 183.371094 Z M 229.535156 187.699219 C 229.535156 187.203125 229.203125 186.867188 228.699219 186.867188 L 205.609375 186.867188 C 205.109375 186.867188 204.773438 187.203125 204.773438 187.699219 C 204.773438 188.199219 205.109375 188.535156 205.609375 188.535156 L 228.53125 188.535156 C 229.203125 188.535156 229.535156 188.035156 229.535156 187.699219 Z M 229.535156 187.699219 " fill-opacity="1" fill-rule="nonzero"/><path fill="#000000" d="M 230.371094 124.90625 L 230.371094 168.378906 C 230.371094 170.546875 228.699219 172.210938 226.523438 172.210938 L 218.660156 172.210938 L 218.660156 171.378906 L 216.988281 171.378906 L 216.988281 172.210938 L 158.097656 172.210938 L 158.097656 171.378906 L 156.421875 171.378906 L 156.421875 172.210938 L 148.558594 172.210938 C 146.382812 172.210938 144.710938 170.546875 144.710938 168.378906 L 144.710938 124.90625 C 144.710938 122.742188 146.382812 121.074219 148.558594 121.074219 L 226.691406 121.074219 C 228.699219 121.074219 230.371094 122.742188 230.371094 124.90625 Z M 228.699219 168.378906 L 228.699219 124.90625 C 228.699219 123.738281 227.695312 122.742188 226.523438 122.742188 L 148.558594 122.742188 C 147.386719 122.742188 146.382812 123.738281 146.382812 124.90625 L 146.382812 168.378906 C 146.382812 169.546875 147.386719 170.546875 148.558594 170.546875 L 226.691406 170.546875 C 227.863281 170.546875 228.699219 169.546875 228.699219 168.378906 Z M 228.699219 168.378906 " fill-opacity="1" fill-rule="nonzero"/><path fill="#000000" d="M 228.699219 182.539062 C 229.203125 182.539062 229.535156 182.871094 229.535156 183.371094 C 229.535156 183.871094 229.203125 184.203125 228.699219 184.203125 L 205.609375 184.203125 C 205.109375 184.203125 204.773438 183.871094 204.773438 183.371094 C 204.773438 182.871094 205.109375 182.539062 205.609375 182.539062 Z M 228.699219 182.539062 " fill-opacity="1" fill-rule="nonzero"/><path fill="#000000" d="M 228.699219 186.867188 C 229.203125 186.867188 229.535156 187.203125 229.535156 187.699219 C 229.535156 188.199219 229.203125 188.535156 228.699219 188.535156 L 205.609375 188.535156 C 205.109375 188.535156 204.773438 188.199219 204.773438 187.699219 C 204.773438 187.203125 205.109375 186.867188 205.609375 186.867188 Z M 228.699219 186.867188 " fill-opacity="1" fill-rule="nonzero"/><path fill="#ffffff" d="M 228.699219 124.90625 L 228.699219 168.378906 C 228.699219 169.546875 227.695312 170.546875 226.523438 170.546875 L 148.558594 170.546875 C 147.386719 170.546875 146.382812 169.546875 146.382812 168.378906 L 146.382812 124.90625 C 146.382812 123.738281 147.386719 122.742188 148.558594 122.742188 L 226.691406 122.742188 C 227.863281 122.742188 228.699219 123.738281 228.699219 124.90625 Z M 226.191406 165.214844 L 226.191406 126.570312 C 226.191406 125.90625 225.6875 125.238281 224.851562 125.238281 L 150.230469 125.238281 C 149.5625 125.238281 148.894531 125.90625 148.894531 126.570312 L 148.894531 165.214844 C 148.894531 165.882812 149.394531 166.546875 150.230469 166.546875 L 224.851562 166.546875 C 225.519531 166.546875 226.191406 165.882812 226.191406 165.214844 Z M 226.191406 165.214844 " fill-opacity="1" fill-rule="nonzero"/><path fill="#000000" d="M 226.191406 126.570312 L 226.191406 165.214844 C 226.191406 165.882812 225.6875 166.546875 224.851562 166.546875 L 150.230469 166.546875 C 149.5625 166.546875 148.894531 165.882812 148.894531 165.214844 L 148.894531 126.570312 C 148.894531 125.90625 149.394531 125.238281 150.230469 125.238281 L 224.851562 125.238281 C 225.519531 125.238281 226.191406 125.90625 226.191406 126.570312 Z M 224.515625 164.882812 L 224.515625 126.90625 L 150.566406 126.90625 L 150.566406 164.882812 Z M 224.515625 164.882812 " fill-opacity="1" fill-rule="nonzero"/><path fill="#38b6ff" d="M 224.515625 126.90625 L 224.515625 164.882812 L 170.308594 164.882812 L 170.308594 160.050781 C 170.980469 160.050781 171.648438 159.386719 171.648438 158.71875 L 171.648438 141.894531 C 171.648438 141.230469 170.980469 140.5625 170.308594 140.5625 L 157.425781 140.5625 C 156.757812 140.5625 156.089844 141.230469 156.089844 141.894531 L 156.089844 158.71875 C 156.089844 159.386719 156.757812 160.050781 157.425781 160.050781 L 157.425781 164.882812 L 150.566406 164.882812 L 150.566406 126.90625 Z M 218.996094 132.734375 C 218.996094 132.234375 218.660156 131.902344 218.160156 131.902344 L 156.925781 131.902344 C 156.421875 131.902344 156.089844 132.234375 156.089844 132.734375 C 156.089844 133.234375 156.421875 133.566406 156.925781 133.566406 L 218.160156 133.566406 C 218.660156 133.566406 218.996094 133.066406 218.996094 132.734375 Z M 218.996094 141.394531 C 218.996094 140.894531 218.660156 140.5625 218.160156 140.5625 L 177.839844 140.5625 C 177.335938 140.5625 177 140.894531 177 141.394531 C 177 141.894531 177.335938 142.230469 177.839844 142.230469 L 218.328125 142.230469 C 218.660156 142.230469 218.996094 141.894531 218.996094 141.394531 Z M 218.996094 147.226562 C 218.996094 146.726562 218.660156 146.394531 218.160156 146.394531 L 177.839844 146.394531 C 177.335938 146.394531 177 146.726562 177 147.226562 C 177 147.726562 177.335938 148.058594 177.839844 148.058594 L 218.328125 148.058594 C 218.660156 148.058594 218.996094 147.726562 218.996094 147.226562 Z M 218.996094 153.222656 C 218.996094 152.722656 218.660156 152.390625 218.160156 152.390625 L 177.839844 152.390625 C 177.335938 152.390625 177 152.722656 177 153.222656 C 177 153.722656 177.335938 154.054688 177.839844 154.054688 L 218.328125 154.054688 C 218.660156 154.054688 218.996094 153.722656 218.996094 153.222656 Z M 218.996094 159.21875 C 218.996094 158.71875 218.660156 158.386719 218.160156 158.386719 L 177.839844 158.386719 C 177.335938 158.386719 177 158.71875 177 159.21875 C 177 159.71875 177.335938 160.050781 177.839844 160.050781 L 218.328125 160.050781 C 218.660156 160.050781 218.996094 159.550781 218.996094 159.21875 Z M 218.996094 159.21875 " fill-opacity="1" fill-rule="nonzero"/><path fill="#000000" d="M 216.988281 176.042969 L 218.660156 176.042969 L 218.660156 176.875 L 216.988281 176.875 Z M 216.988281 176.042969 " fill-opacity="1" fill-rule="nonzero"/><path fill="#000000" d="M 216.988281 172.210938 L 218.660156 172.210938 L 218.660156 176.042969 L 216.988281 176.042969 Z M 216.988281 172.210938 " fill-opacity="1" fill-rule="nonzero"/><path fill="#000000" d="M 216.988281 171.378906 L 218.660156 171.378906 L 218.660156 172.210938 L 216.988281 172.210938 Z M 216.988281 171.378906 " fill-opacity="1" fill-rule="nonzero"/><path fill="#000000" d="M 218.160156 131.902344 C 218.660156 131.902344 218.996094 132.234375 218.996094 132.734375 C 218.996094 133.234375 218.660156 133.566406 218.160156 133.566406 L 156.925781 133.566406 C 156.421875 133.566406 156.089844 133.234375 156.089844 132.734375 C 156.089844 132.234375 156.421875 131.902344 156.925781 131.902344 Z M 218.160156 131.902344 " fill-opacity="1" fill-rule="nonzero"/><path fill="#000000" d="M 218.160156 140.5625 C 218.660156 140.5625 218.996094 140.894531 218.996094 141.394531 C 218.996094 141.894531 218.660156 142.230469 218.160156 142.230469 L 177.839844 142.230469 C 177.335938 142.230469 177 141.894531 177 141.394531 C 177 140.894531 177.335938 140.5625 177.839844 140.5625 Z M 218.160156 140.5625 " fill-opacity="1" fill-rule="nonzero"/><path fill="#000000" d="M 218.160156 146.394531 C 218.660156 146.394531 218.996094 146.726562 218.996094 147.226562 C 218.996094 147.726562 218.660156 148.058594 218.160156 148.058594 L 177.839844 148.058594 C 177.335938 148.058594 177 147.726562 177 147.226562 C 177 146.726562 177.335938 146.394531 177.839844 146.394531 Z M 218.160156 146.394531 " fill-opacity="1" fill-rule="nonzero"/><path fill="#000000" d="M 218.160156 152.390625 C 218.660156 152.390625 218.996094 152.722656 218.996094 153.222656 C 218.996094 153.722656 218.660156 154.054688 218.160156 154.054688 L 177.839844 154.054688 C 177.335938 154.054688 177 153.722656 177 153.222656 C 177 152.722656 177.335938 152.390625 177.839844 152.390625 Z M 218.160156 152.390625 " fill-opacity="1" fill-rule="nonzero"/><path fill="#000000" d="M 218.160156 158.386719 C 218.660156 158.386719 218.996094 158.71875 218.996094 159.21875 C 218.996094 159.71875 218.660156 160.050781 218.160156 160.050781 L 177.839844 160.050781 C 177.335938 160.050781 177 159.71875 177 159.21875 C 177 158.71875 177.335938 158.386719 177.839844 158.386719 Z M 218.160156 158.386719 " fill-opacity="1" fill-rule="nonzero"/><path fill="#000000" d="M 198.417969 188.699219 C 198.417969 189.199219 198.417969 189.535156 198.082031 189.867188 L 197.746094 190.199219 L 177.503906 190.199219 L 177.167969 189.867188 C 177 189.535156 176.835938 189.199219 176.835938 188.699219 L 177.839844 182.039062 C 178.003906 181.371094 178.339844 181.039062 178.84375 181.039062 L 196.242188 181.039062 C 196.742188 181.039062 197.246094 181.371094 197.246094 182.039062 Z M 196.578125 188.535156 L 195.738281 182.539062 L 179.34375 182.539062 L 178.507812 188.535156 Z M 196.578125 188.535156 " fill-opacity="1" fill-rule="nonzero"/><path fill="#38b6ff" d="M 197.246094 190.199219 L 197.246094 193.699219 L 136.011719 193.699219 C 135.507812 193.699219 135.175781 193.363281 134.839844 193.03125 C 134.839844 192.53125 134.839844 192.03125 135.175781 191.699219 L 145.214844 178.539062 C 145.714844 178.039062 146.382812 177.707031 147.054688 177.707031 L 196.242188 177.707031 L 196.242188 180.871094 L 178.84375 180.871094 C 178.339844 180.871094 177.839844 181.371094 177.839844 181.871094 L 176.835938 188.535156 C 176.835938 189.035156 176.835938 189.367188 177.167969 189.699219 L 177.503906 190.03125 L 197.246094 190.03125 Z M 170.308594 183.371094 C 170.308594 182.871094 169.976562 182.539062 169.472656 182.539062 L 146.382812 182.539062 C 145.882812 182.539062 145.546875 182.871094 145.546875 183.371094 C 145.546875 183.871094 145.882812 184.203125 146.382812 184.203125 L 169.304688 184.203125 C 169.808594 184.203125 170.308594 183.871094 170.308594 183.371094 Z M 170.308594 187.699219 C 170.308594 187.203125 169.976562 186.867188 169.472656 186.867188 L 146.382812 186.867188 C 145.882812 186.867188 145.546875 187.203125 145.546875 187.699219 C 145.546875 188.199219 145.882812 188.535156 146.382812 188.535156 L 169.304688 188.535156 C 169.808594 188.535156 170.308594 188.035156 170.308594 187.699219 Z M 170.308594 187.699219 " fill-opacity="1" fill-rule="nonzero"/><path fill="#ffffff" d="M 195.738281 182.539062 L 196.578125 188.535156 L 178.507812 188.535156 L 179.34375 182.539062 Z M 195.738281 182.539062 " fill-opacity="1" fill-rule="nonzero"/><path fill="#000000" d="M 171.648438 141.894531 L 171.648438 158.71875 C 171.648438 159.386719 170.980469 160.050781 170.308594 160.050781 L 157.425781 160.050781 C 156.757812 160.050781 156.089844 159.386719 156.089844 158.71875 L 156.089844 141.894531 C 156.089844 141.230469 156.757812 140.5625 157.425781 140.5625 L 170.308594 140.5625 C 170.980469 140.5625 171.648438 141.230469 171.648438 141.894531 Z M 169.976562 158.386719 L 169.976562 142.230469 L 157.761719 142.230469 L 157.761719 158.386719 Z M 169.976562 158.386719 " fill-opacity="1" fill-rule="nonzero"/><path fill="#38b6ff" d="M 157.425781 160.050781 L 170.308594 160.050781 L 170.308594 164.882812 L 157.425781 164.882812 Z M 157.425781 160.050781 " fill-opacity="1" fill-rule="nonzero"/><path fill="#ffffff" d="M 157.761719 142.230469 L 169.976562 142.230469 L 169.976562 158.386719 L 157.761719 158.386719 Z M 157.761719 142.230469 " fill-opacity="1" fill-rule="nonzero"/><path fill="#000000" d="M 169.472656 182.539062 C 169.976562 182.539062 170.308594 182.871094 170.308594 183.371094 C 170.308594 183.871094 169.976562 184.203125 169.472656 184.203125 L 146.382812 184.203125 C 145.882812 184.203125 145.546875 183.871094 145.546875 183.371094 C 145.546875 182.871094 145.882812 182.539062 146.382812 182.539062 Z M 169.472656 182.539062 " fill-opacity="1" fill-rule="nonzero"/><path fill="#000000" d="M 169.472656 186.867188 C 169.976562 186.867188 170.308594 187.203125 170.308594 187.699219 C 170.308594 188.199219 169.976562 188.535156 169.472656 188.535156 L 146.382812 188.535156 C 145.882812 188.535156 145.546875 188.199219 145.546875 187.699219 C 145.546875 187.203125 145.882812 186.867188 146.382812 186.867188 Z M 169.472656 186.867188 " fill-opacity="1" fill-rule="nonzero"/><path fill="#000000" d="M 156.421875 176.042969 L 158.097656 176.042969 L 158.097656 176.875 L 156.421875 176.875 Z M 156.421875 176.042969 " fill-opacity="1" fill-rule="nonzero"/><path fill="#000000" d="M 156.421875 172.210938 L 158.097656 172.210938 L 158.097656 176.042969 L 156.421875 176.042969 Z M 156.421875 172.210938 " fill-opacity="1" fill-rule="nonzero"/><path fill="#000000" d="M 156.421875 171.378906 L 158.097656 171.378906 L 158.097656 172.210938 L 156.421875 172.210938 Z M 156.421875 171.378906 " fill-opacity="1" fill-rule="nonzero"/><g fill="#ffffff" fill-opacity="1"><g transform="translate(96.559462, 219.754176)"><g><path d="M 1.203125 0 L 1.203125 -13.296875 L 6.3125 -13.296875 C 7.300781 -13.296875 8.222656 -13.125 9.078125 -12.78125 C 9.941406 -12.445312 10.6875 -11.976562 11.3125 -11.375 C 11.9375 -10.78125 12.429688 -10.070312 12.796875 -9.25 C 13.160156 -8.425781 13.34375 -7.546875 13.34375 -6.609375 C 13.34375 -5.679688 13.160156 -4.8125 12.796875 -4 C 12.429688 -3.195312 11.9375 -2.5 11.3125 -1.90625 C 10.6875 -1.320312 9.941406 -0.859375 9.078125 -0.515625 C 8.222656 -0.171875 7.300781 0 6.3125 0 Z M 6.28125 -10.84375 L 3.953125 -10.84375 L 3.953125 -2.453125 L 6.28125 -2.453125 C 6.863281 -2.453125 7.410156 -2.554688 7.921875 -2.765625 C 8.441406 -2.984375 8.890625 -3.28125 9.265625 -3.65625 C 9.648438 -4.03125 9.945312 -4.46875 10.15625 -4.96875 C 10.375 -5.476562 10.484375 -6.023438 10.484375 -6.609375 C 10.484375 -7.203125 10.375 -7.757812 10.15625 -8.28125 C 9.945312 -8.800781 9.648438 -9.25 9.265625 -9.625 C 8.890625 -10.007812 8.441406 -10.304688 7.921875 -10.515625 C 7.410156 -10.734375 6.863281 -10.84375 6.28125 -10.84375 Z M 6.28125 -10.84375 "/></g></g></g><g fill="#ffffff" fill-opacity="1"><g transform="translate(112.611588, 219.754176)"><g><path d="M -0.078125 0 L 5.390625 -13.296875 L 8.59375 -13.296875 L 13.984375 0 L 11 0 L 9.65625 -3.5 L 4.15625 -3.5 L 2.796875 0 Z M 5.015625 -5.703125 L 8.8125 -5.703125 L 6.9375 -10.609375 Z M 5.015625 -5.703125 "/></g></g></g><g fill="#ffffff" fill-opacity="1"><g transform="translate(128.549731, 219.754176)"><g><path d="M 1.203125 -13.296875 L 3.8125 -13.296875 L 10.4375 -4.6875 L 10.4375 -13.296875 L 13.015625 -13.296875 L 13.015625 0 L 10.578125 0 L 3.796875 -8.890625 L 3.796875 0 L 1.203125 0 Z M 1.203125 -13.296875 "/></g></g></g><g fill="#ffffff" fill-opacity="1"><g transform="translate(144.810817, 219.754176)"><g><path d="M 1.203125 0 L 1.203125 -13.296875 L 3.953125 -13.296875 L 3.953125 0 Z M 1.203125 0 "/></g></g></g><g fill="#ffffff" fill-opacity="1"><g transform="translate(152.010758, 219.754176)"><g><path d="M 1.203125 0 L 1.203125 -13.296875 L 11.421875 -13.296875 L 11.421875 -10.90625 L 3.953125 -10.90625 L 3.953125 -7.859375 L 8.875 -7.859375 L 8.875 -5.546875 L 3.953125 -5.546875 L 3.953125 -2.390625 L 11.5 -2.390625 L 11.5 0 Z M 1.203125 0 "/></g></g></g><g fill="#ffffff" fill-opacity="1"><g transform="translate(166.296251, 219.754176)"><g><path d="M 1.203125 0 L 1.203125 -13.296875 L 3.953125 -13.296875 L 3.953125 -2.4375 L 11.234375 -2.4375 L 11.234375 0 Z M 1.203125 0 "/></g></g></g><g fill="#ffffff" fill-opacity="1"><g transform="translate(180.258798, 219.754176)"><g/></g></g><g fill="#ffffff" fill-opacity="1"><g transform="translate(186.110007, 219.754176)"><g><path d="M 6.328125 0 L 3.4375 0 L 0.5 -13.296875 L 3.328125 -13.296875 L 5.125 -4.28125 L 7.734375 -13.296875 L 10.3125 -13.296875 L 12.90625 -4.3125 L 14.703125 -13.296875 L 17.4375 -13.296875 L 14.5 0 L 11.609375 0 L 8.96875 -9.296875 Z M 6.328125 0 "/></g></g></g><g fill="#ffffff" fill-opacity="1"><g transform="translate(206.075339, 219.754176)"><g><path d="M -0.078125 0 L 5.390625 -13.296875 L 8.59375 -13.296875 L 13.984375 0 L 11 0 L 9.65625 -3.5 L 4.15625 -3.5 L 2.796875 0 Z M 5.015625 -5.703125 L 8.8125 -5.703125 L 6.9375 -10.609375 Z M 5.015625 -5.703125 "/></g></g></g><g fill="#ffffff" fill-opacity="1"><g transform="translate(222.013479, 219.754176)"><g><path d="M 1.203125 0 L 1.203125 -13.296875 L 3.953125 -13.296875 L 3.953125 -2.4375 L 11.234375 -2.4375 L 11.234375 0 Z M 1.203125 0 "/></g></g></g><g fill="#ffffff" fill-opacity="1"><g transform="translate(235.976025, 219.754176)"><g><path d="M 1.203125 0 L 1.203125 -13.296875 L 3.953125 -13.296875 L 3.953125 -7.328125 L 9.765625 -13.296875 L 13.125 -13.296875 L 6.703125 -6.96875 L 13.4375 0 L 9.75 0 L 3.953125 -6.234375 L 3.953125 0 Z M 1.203125 0 "/></g></g></g><g fill="#ffffff" fill-opacity="1"><g transform="translate(251.249309, 219.754176)"><g><path d="M 1.203125 0 L 1.203125 -13.296875 L 11.421875 -13.296875 L 11.421875 -10.90625 L 3.953125 -10.90625 L 3.953125 -7.859375 L 8.875 -7.859375 L 8.875 -5.546875 L 3.953125 -5.546875 L 3.953125 -2.390625 L 11.5 -2.390625 L 11.5 0 Z M 1.203125 0 "/></g></g></g><g fill="#ffffff" fill-opacity="1"><g transform="translate(265.534797, 219.754176)"><g><path d="M 1.203125 0 L 1.203125 -13.296875 L 7.6875 -13.296875 C 8.363281 -13.296875 8.984375 -13.191406 9.546875 -12.984375 C 10.109375 -12.785156 10.59375 -12.503906 11 -12.140625 C 11.40625 -11.785156 11.722656 -11.351562 11.953125 -10.84375 C 12.179688 -10.34375 12.296875 -9.785156 12.296875 -9.171875 C 12.296875 -8.335938 12.054688 -7.59375 11.578125 -6.9375 C 11.109375 -6.28125 10.476562 -5.789062 9.6875 -5.46875 L 12.640625 0 L 9.5625 0 L 6.953125 -5.09375 L 3.953125 -5.09375 L 3.953125 0 Z M 7.453125 -10.921875 L 3.953125 -10.921875 L 3.953125 -7.359375 L 7.453125 -7.359375 C 8.066406 -7.359375 8.5625 -7.519531 8.9375 -7.84375 C 9.3125 -8.175781 9.5 -8.609375 9.5 -9.140625 C 9.5 -9.671875 9.3125 -10.097656 8.9375 -10.421875 C 8.5625 -10.753906 8.066406 -10.921875 7.453125 -10.921875 Z M 7.453125 -10.921875 "/></g></g></g><g fill="#38b6ff" fill-opacity="1"><g transform="translate(95.790284, 243.613388)"><g><path d="M 1.078125 0 L 1.078125 -9.796875 L 4.3125 -9.796875 C 5.050781 -9.796875 5.738281 -9.671875 6.375 -9.421875 C 7.007812 -9.179688 7.550781 -8.84375 8 -8.40625 C 8.457031 -7.976562 8.816406 -7.460938 9.078125 -6.859375 C 9.335938 -6.265625 9.46875 -5.613281 9.46875 -4.90625 C 9.46875 -4.195312 9.335938 -3.539062 9.078125 -2.9375 C 8.816406 -2.332031 8.460938 -1.8125 8.015625 -1.375 C 7.566406 -0.945312 7.023438 -0.609375 6.390625 -0.359375 C 5.753906 -0.117188 5.0625 0 4.3125 0 Z M 4.375 -8.8125 L 2.15625 -8.8125 L 2.15625 -0.984375 L 4.375 -0.984375 C 4.925781 -0.984375 5.445312 -1.082031 5.9375 -1.28125 C 6.4375 -1.476562 6.863281 -1.75 7.21875 -2.09375 C 7.570312 -2.445312 7.851562 -2.863281 8.0625 -3.34375 C 8.269531 -3.832031 8.375 -4.351562 8.375 -4.90625 C 8.375 -5.445312 8.269531 -5.957031 8.0625 -6.4375 C 7.851562 -6.925781 7.570312 -7.34375 7.21875 -7.6875 C 6.863281 -8.039062 6.4375 -8.316406 5.9375 -8.515625 C 5.445312 -8.710938 4.925781 -8.8125 4.375 -8.8125 Z M 4.375 -8.8125 "/></g></g></g><g fill="#38b6ff" fill-opacity="1"><g transform="translate(113.718681, 243.613388)"><g><path d="M 1.078125 0 L 1.078125 -9.796875 L 8.09375 -9.796875 L 8.09375 -8.84375 L 2.15625 -8.84375 L 2.15625 -5.421875 L 6.03125 -5.421875 L 6.03125 -4.484375 L 2.15625 -4.484375 L 2.15625 -0.953125 L 8.140625 -0.953125 L 8.140625 0 Z M 1.078125 0 "/></g></g></g><g fill="#38b6ff" fill-opacity="1"><g transform="translate(130.191881, 243.613388)"><g><path d="M 4.078125 0 L 0.0625 -9.796875 L 1.21875 -9.796875 L 4.765625 -1.015625 L 8.359375 -9.796875 L 9.453125 -9.796875 L 5.375 0 Z M 4.078125 0 "/></g></g></g><g fill="#38b6ff" fill-opacity="1"><g transform="translate(147.546599, 243.613388)"><g><path d="M 1.078125 0 L 1.078125 -9.796875 L 8.09375 -9.796875 L 8.09375 -8.84375 L 2.15625 -8.84375 L 2.15625 -5.421875 L 6.03125 -5.421875 L 6.03125 -4.484375 L 2.15625 -4.484375 L 2.15625 -0.953125 L 8.140625 -0.953125 L 8.140625 0 Z M 1.078125 0 "/></g></g></g><g fill="#38b6ff" fill-opacity="1"><g transform="translate(164.019796, 243.613388)"><g><path d="M 1.078125 0 L 1.078125 -9.796875 L 2.15625 -9.796875 L 2.15625 -0.96875 L 8 -0.96875 L 8 0 Z M 1.078125 0 "/></g></g></g><g fill="#38b6ff" fill-opacity="1"><g transform="translate(180.325085, 243.613388)"><g><path d="M 10.703125 -4.90625 C 10.703125 -4.195312 10.570312 -3.53125 10.3125 -2.90625 C 10.050781 -2.289062 9.691406 -1.753906 9.234375 -1.296875 C 8.785156 -0.847656 8.253906 -0.492188 7.640625 -0.234375 C 7.023438 0.0234375 6.367188 0.15625 5.671875 0.15625 C 4.972656 0.15625 4.3125 0.0234375 3.6875 -0.234375 C 3.070312 -0.492188 2.535156 -0.847656 2.078125 -1.296875 C 1.628906 -1.753906 1.269531 -2.289062 1 -2.90625 C 0.738281 -3.53125 0.609375 -4.195312 0.609375 -4.90625 C 0.609375 -5.601562 0.738281 -6.257812 1 -6.875 C 1.269531 -7.5 1.628906 -8.035156 2.078125 -8.484375 C 2.535156 -8.941406 3.070312 -9.300781 3.6875 -9.5625 C 4.3125 -9.820312 4.972656 -9.953125 5.671875 -9.953125 C 6.367188 -9.953125 7.023438 -9.820312 7.640625 -9.5625 C 8.253906 -9.300781 8.785156 -8.941406 9.234375 -8.484375 C 9.691406 -8.035156 10.050781 -7.5 10.3125 -6.875 C 10.570312 -6.257812 10.703125 -5.601562 10.703125 -4.90625 Z M 9.625 -4.90625 C 9.625 -5.46875 9.519531 -6 9.3125 -6.5 C 9.101562 -7 8.820312 -7.425781 8.46875 -7.78125 C 8.125 -8.144531 7.707031 -8.429688 7.21875 -8.640625 C 6.738281 -8.847656 6.222656 -8.953125 5.671875 -8.953125 C 5.109375 -8.953125 4.582031 -8.847656 4.09375 -8.640625 C 3.613281 -8.429688 3.195312 -8.144531 2.84375 -7.78125 C 2.5 -7.425781 2.222656 -7 2.015625 -6.5 C 1.804688 -6 1.703125 -5.46875 1.703125 -4.90625 C 1.703125 -4.332031 1.804688 -3.796875 2.015625 -3.296875 C 2.222656 -2.804688 2.5 -2.378906 2.84375 -2.015625 C 3.195312 -1.648438 3.613281 -1.363281 4.09375 -1.15625 C 4.582031 -0.945312 5.109375 -0.84375 5.671875 -0.84375 C 6.222656 -0.84375 6.738281 -0.945312 7.21875 -1.15625 C 7.707031 -1.363281 8.125 -1.648438 8.46875 -2.015625 C 8.820312 -2.378906 9.101562 -2.804688 9.3125 -3.296875 C 9.519531 -3.796875 9.625 -4.332031 9.625 -4.90625 Z M 9.625 -4.90625 "/></g></g></g><g fill="#38b6ff" fill-opacity="1"><g transform="translate(199.498778, 243.613388)"><g><path d="M 1.078125 0 L 1.078125 -9.796875 L 5.328125 -9.796875 C 6.285156 -9.796875 7.050781 -9.535156 7.625 -9.015625 C 8.207031 -8.503906 8.5 -7.820312 8.5 -6.96875 C 8.5 -6.125 8.207031 -5.4375 7.625 -4.90625 C 7.039062 -4.382812 6.273438 -4.125 5.328125 -4.125 L 2.15625 -4.125 L 2.15625 0 Z M 5.25 -8.828125 L 2.15625 -8.828125 L 2.15625 -5.0625 L 5.25 -5.0625 C 5.914062 -5.0625 6.441406 -5.234375 6.828125 -5.578125 C 7.222656 -5.921875 7.421875 -6.378906 7.421875 -6.953125 C 7.421875 -7.535156 7.222656 -7.992188 6.828125 -8.328125 C 6.441406 -8.660156 5.914062 -8.828125 5.25 -8.828125 Z M 5.25 -8.828125 "/></g></g></g><g fill="#38b6ff" fill-opacity="1"><g transform="translate(216.405741, 243.613388)"><g><path d="M 5.921875 -0.703125 L 2.09375 -8.546875 L 2.09375 0 L 1.078125 0 L 1.078125 -9.796875 L 2.59375 -9.796875 L 5.9375 -2.84375 L 9.265625 -9.796875 L 10.78125 -9.796875 L 10.78125 0 L 9.765625 0 L 9.765625 -8.5625 Z M 5.921875 -0.703125 "/></g></g></g><g fill="#38b6ff" fill-opacity="1"><g transform="translate(236.111138, 243.613388)"><g><path d="M 1.078125 0 L 1.078125 -9.796875 L 8.09375 -9.796875 L 8.09375 -8.84375 L 2.15625 -8.84375 L 2.15625 -5.421875 L 6.03125 -5.421875 L 6.03125 -4.484375 L 2.15625 -4.484375 L 2.15625 -0.953125 L 8.140625 -0.953125 L 8.140625 0 Z M 1.078125 0 "/></g></g></g><g fill="#38b6ff" fill-opacity="1"><g transform="translate(252.584335, 243.613388)"><g><path d="M 1.078125 -9.796875 L 2.15625 -9.796875 L 8.046875 -1.84375 L 8.046875 -9.796875 L 9.078125 -9.796875 L 9.078125 0 L 8.125 0 L 2.09375 -8.15625 L 2.09375 0 L 1.078125 0 Z M 1.078125 -9.796875 "/></g></g></g><g fill="#38b6ff" fill-opacity="1"><g transform="translate(270.582686, 243.613388)"><g><path d="M 0.234375 -8.828125 L 0.234375 -9.796875 L 8.40625 -9.796875 L 8.40625 -8.828125 L 4.859375 -8.828125 L 4.859375 0 L 3.78125 0 L 3.78125 -8.828125 Z M 0.234375 -8.828125 "/></g></g></g></svg>